<?xml version="1.0" encoding="UTF-8"?>
<svg width="180px" height="149px" viewBox="0 0 180 149" version="1.1" xmlns="http://www.w3.org/2000/svg" xmlns:xlink="http://www.w3.org/1999/xlink">
    <!-- Generator: Sketch 46.1 (44463) - http://www.bohemiancoding.com/sketch -->
    <title>Group</title>
    <desc>Created with Sketch.</desc>
    <defs></defs>
    <g id="Page-1" stroke="none" stroke-width="1" fill="none" fill-rule="evenodd">
        <g id="PP5-Copy-81" transform="translate(-630.000000, -508.000000)" fill-rule="nonzero" fill="#9A9A9A">
            <g id="Group" transform="translate(630.000000, 508.000000)">
                <path d="M75.42,89.2404762 C75.42,89.2404762 79.2,91.0380952 80.46,95.172619 C81,97.15 82.26,97.6892857 82.98,97.6892857 C83.16,97.6892857 83.16,97.6892857 83.34,97.6892857 C85.14,97.6892857 86.04,96.0714286 87.66,93.375 C90.18,89.2404762 94.32,82.2297619 102.06,79.3535714 C103.32,78.9940476 103.86,77.5559524 103.5,76.477381 C103.14,75.2190476 101.7,74.6797619 100.62,75.0392857 C91.26,78.275 86.4,86.5440476 83.88,91.0380952 C81.54,86.7238095 77.58,84.9261905 77.4,84.9261905 C76.32,84.3869048 74.88,84.9261905 74.34,86.1845238 C73.8,87.4428571 74.34,88.8809524 75.42,89.2404762 Z" id="Shape"></path>
                <path d="M137.34,104.7 L123.3,104.7 C123.3,104.340476 123.48,104.160714 123.48,103.80119 L123.48,68.0285714 C123.48,66.5904762 122.76,65.3321429 121.68,64.4333333 C121.86,58.8607143 122.04,53.2880952 122.04,48.9738095 C122.04,45.0190476 121.32,40.8845238 120.06,37.1095238 L117.9,30.2785714 C117.54,29.0202381 117,26.6833333 116.82,25.2452381 L116.28,20.7511905 L117,20.7511905 C120.24,20.7511905 122.94,18.0547619 122.94,14.8190476 L122.94,6.01071429 C122.94,2.775 120.24,0.0785714286 117,0.0785714286 L61.92,0.0785714286 C58.68,0.0785714286 55.98,2.775 55.98,6.01071429 L55.98,14.8190476 C55.98,18.0547619 58.68,20.7511905 61.92,20.7511905 L61.92,20.7511905 L61.56,24.8857143 C61.38,26.1440476 61.02,28.4809524 60.48,29.7392857 L57.6,38.1880952 C56.7,40.7047619 56.34,43.4011905 56.34,46.097619 C56.52,51.4904762 57.24,60.4785714 57.6,64.4333333 C56.52,65.3321429 55.8,66.5904762 55.8,68.0285714 L55.8,103.80119 C55.8,104.160714 55.8,104.520238 55.98,104.7 L42.12,104.7 C40.86,104.7 39.78,105.778571 39.78,107.036905 C39.78,108.295238 40.86,109.37381 42.12,109.37381 L137.34,109.37381 C138.6,109.37381 139.68,108.295238 139.68,107.036905 C139.5,105.778571 138.6,104.7 137.34,104.7 Z M61.92,16.2571429 C61.2,16.2571429 60.48,15.7178571 60.48,14.8190476 L60.48,6.01071429 C60.48,5.29166667 61.02,4.57261905 61.92,4.57261905 L117,4.57261905 C117.72,4.57261905 118.44,5.11190476 118.44,6.01071429 L118.44,14.8190476 C118.44,15.5380952 117.9,16.2571429 117,16.2571429 L61.92,16.2571429 Z M61.92,39.6261905 L64.98,31.177381 C65.52,29.5595238 66.06,27.0428571 66.24,25.2452381 L66.6,20.5714286 L111.06,20.5714286 L111.78,25.7845238 C111.96,27.402381 112.5,29.9190476 113.04,31.5369048 L115.2,38.3678571 C116.28,41.7833333 116.82,45.3785714 117,48.7940476 C117.18,57.2428571 116.28,72.1630952 115.92,78.0952381 C115.92,79.3535714 115.02,80.4321429 113.76,80.6119048 C113.4,80.4321429 112.68,79.7130952 112.5,79.5333333 C110.52,74.8595238 110.52,64.7928571 110.52,55.8047619 C110.52,54.7261905 109.62,53.647619 108.54,53.4678571 C108,53.2880952 94.68,50.9511905 93.24,37.4690476 C93.06,36.2107143 91.98,35.3119048 90.72,35.4916667 C89.46,35.6714286 88.56,36.75 88.74,38.0083333 C90.18,51.6702381 101.34,56.1642857 106.02,57.602381 C106.02,59.4 106.02,61.197619 106.02,62.8154762 L101.34,62.8154762 L101.34,62.6357143 C101.34,61.377381 100.26,60.2988095 99,60.2988095 C97.74,60.2988095 96.66,61.377381 96.66,62.6357143 L96.66,62.8154762 L86.58,62.8154762 L86.58,62.6357143 C86.58,61.377381 85.5,60.2988095 84.24,60.2988095 C82.98,60.2988095 81.9,61.377381 81.9,62.6357143 L81.9,62.8154762 L71.82,62.8154762 L71.82,62.6357143 C71.82,61.377381 70.74,60.2988095 69.48,60.2988095 C68.22,60.2988095 67.14,61.377381 67.14,62.6357143 L67.14,62.8154762 L61.56,62.8154762 C61.2,58.5011905 60.66,50.5916667 60.48,45.7380952 C60.84,43.7607143 61.2,41.6035714 61.92,39.6261905 Z M61.02,68.2083333 C61.2,68.2083333 61.38,68.0285714 61.74,68.0285714 L106.56,68.0285714 C106.74,73.4214286 107.46,78.275 108.72,81.5107143 C109.26,82.5892857 111.42,85.4654762 114.12,85.4654762 C114.12,85.4654762 114.3,85.4654762 114.3,85.4654762 C115.74,85.2857143 117.18,84.7464286 118.26,83.847619 L118.26,103.621429 C118.08,103.621429 117.9,103.80119 117.54,103.80119 L61.74,103.80119 C61.38,103.80119 61.2,103.621429 61.02,103.621429 L61.02,68.2083333 Z" id="Shape"></path>
                <path d="M179.1,146.584524 C179.1,146.584524 179.1,146.584524 179.1,146.584524 C179.1,146.584524 179.1,146.584524 179.1,146.584524 C179.1,146.225 179.1,145.865476 178.92,145.685714 L178.92,145.685714 C178.92,145.685714 178.92,145.685714 178.92,145.685714 L146.88,61.7369048 C146.52,60.8380952 145.8,60.1190476 144.9,60.1190476 L127.98,60.1190476 C126.72,60.1190476 125.64,61.197619 125.64,62.4559524 C125.64,63.7142857 126.72,64.7928571 127.98,64.7928571 L143.28,64.7928571 L173.34,144.067857 L90.36,144.067857 C90.18,144.067857 90.18,144.067857 90,144.067857 C89.82,144.067857 89.82,144.067857 89.64,144.067857 L6.66,144.067857 L36.72,64.7928571 L50.22,64.7928571 C51.48,64.7928571 52.56,63.7142857 52.56,62.4559524 C52.56,61.197619 51.48,60.1190476 50.22,60.1190476 L35.1,60.1190476 C34.2,60.1190476 33.3,60.6583333 32.94,61.5571429 L1.08,145.685714 C1.08,145.685714 1.08,145.685714 1.08,145.685714 L1.08,145.685714 C0.9,145.865476 0.9,146.225 0.9,146.404762 C0.9,146.404762 0.9,146.404762 0.9,146.584524 C0.9,146.584524 0.9,146.584524 0.9,146.584524 C0.9,146.944048 0.9,147.12381 1.08,147.303571 C1.08,147.303571 1.08,147.303571 1.08,147.483333 C1.08,147.663095 1.26,147.663095 1.26,147.842857 C1.26,148.022619 1.44,148.022619 1.44,148.022619 C1.44,148.022619 1.44,148.022619 1.62,148.202381 C1.8,148.382143 1.98,148.561905 2.34,148.561905 C2.34,148.561905 2.52,148.561905 2.52,148.561905 C2.7,148.741667 3.06,148.741667 3.24,148.741667 L89.64,148.741667 C89.82,148.741667 89.82,148.741667 90,148.741667 C90.18,148.741667 90.18,148.741667 90.36,148.741667 L176.76,148.741667 C177.12,148.741667 177.3,148.741667 177.48,148.561905 C177.48,148.561905 177.66,148.561905 177.66,148.561905 C177.84,148.382143 178.02,148.382143 178.38,148.202381 C178.38,148.202381 178.38,148.202381 178.56,148.022619 C178.56,148.022619 178.74,147.842857 178.74,147.842857 C178.74,147.663095 178.92,147.663095 178.92,147.483333 C178.92,147.483333 178.92,147.483333 178.92,147.303571 C178.92,147.12381 179.1,146.944048 179.1,146.584524 Z" id="Shape"></path>
            </g>
        </g>
    </g>
</svg>